<?xml version="1.0" encoding="utf-8"?>
<!-- Generator: Adobe Illustrator 28.3.0, SVG Export Plug-In . SVG Version: 6.00 Build 0)  -->
<svg version="1.1" id="Layer_1" xmlns="http://www.w3.org/2000/svg" xmlns:xlink="http://www.w3.org/1999/xlink" x="0px" y="0px"
	 viewBox="0 0 75 75" style="enable-background:new 0 0 75 75;" xml:space="preserve">
<style type="text/css">
	.st0{fill:url(#SVGID_1_);}
	.st1{fill:#0134A8;}
	.st2{fill:url(#SVGID_00000000202093767996868220000000247542854563760294_);}
	.st3{fill:url(#SVGID_00000176765972301649530310000016245922694219197319_);}
	.st4{fill:url(#SVGID_00000060720964079707156250000001894473691355166363_);}
</style>
<g>
	
		<linearGradient id="SVGID_1_" gradientUnits="userSpaceOnUse" x1="-2295.655" y1="-3212.2185" x2="-2295.655" y2="-3177.8569" gradientTransform="matrix(6.123234e-17 1 -1 6.123234e-17 -3168.637 2308.7373)">
		<stop  offset="0" style="stop-color:#1A73E0"/>
		<stop  offset="0.9994" style="stop-color:#0033A7"/>
	</linearGradient>
	<polygon class="st0" points="9.22,18.37 9.22,7.8 43.58,7.8 43.58,18.37 	"/>
	<path class="st1" d="M75,13.08L75,13.08c0-2.92-2.37-5.29-5.29-5.29h0c-2.92,0-5.29,2.37-5.29,5.29v0c0,2.92,2.37,5.29,5.29,5.29h0
		C72.63,18.37,75,16,75,13.08z"/>
	<path class="st1" d="M49.28,13.08L49.28,13.08c0-2.92-2.37-5.29-5.29-5.29h0c-2.92,0-5.29,2.37-5.29,5.29v0
		c0,2.92,2.37,5.29,5.29,5.29h0C46.91,18.37,49.28,16,49.28,13.08z"/>
	<path class="st1" d="M13.97,13.08L13.97,13.08c0-2.92-2.37-5.29-5.29-5.29h0c-2.92,0-5.29,2.37-5.29,5.29v0
		c0,2.92,2.37,5.29,5.29,5.29h0C11.6,18.37,13.97,16,13.97,13.08z"/>
</g>
<g>
	
		<linearGradient id="SVGID_00000065052914173373662630000007095370728440371870_" gradientUnits="userSpaceOnUse" x1="-2282.2485" y1="-3235.5425" x2="-2282.2485" y2="-3173.8157" gradientTransform="matrix(6.123234e-17 1 -1 6.123234e-17 -3168.637 2308.7373)">
		<stop  offset="0" style="stop-color:#1A73E0"/>
		<stop  offset="0.9994" style="stop-color:#0033A7"/>
	</linearGradient>
	<polygon style="fill:url(#SVGID_00000065052914173373662630000007095370728440371870_);" points="5.18,31.78 5.18,21.2 66.91,21.2 
		66.91,31.78 	"/>
	<path class="st1" d="M72.19,26.49L72.19,26.49c0-2.92-2.37-5.29-5.29-5.29h0c-2.92,0-5.29,2.37-5.29,5.29v0
		c0,2.92,2.37,5.29,5.29,5.29h0C69.83,31.78,72.19,29.41,72.19,26.49z"/>
	<path class="st1" d="M10.57,26.49L10.57,26.49c0-2.92-2.37-5.29-5.29-5.29h0C2.37,21.2,0,23.57,0,26.49v0
		c0,2.92,2.37,5.29,5.29,5.29h0C8.21,31.78,10.57,29.41,10.57,26.49z"/>
</g>
<g>
	
		<linearGradient id="SVGID_00000133489331583756356060000002481392496458035349_" gradientUnits="userSpaceOnUse" x1="-2268.842" y1="-3231.5896" x2="-2268.842" y2="-3177.0713" gradientTransform="matrix(6.123234e-17 1 -1 6.123234e-17 -3168.637 2308.7373)">
		<stop  offset="0" style="stop-color:#1A73E0"/>
		<stop  offset="0.9994" style="stop-color:#0033A7"/>
	</linearGradient>
	<polygon style="fill:url(#SVGID_00000133489331583756356060000002481392496458035349_);" points="8.43,45.18 8.43,34.61 
		62.95,34.61 62.95,45.18 	"/>
	<path class="st1" d="M68.24,39.9L68.24,39.9c0-2.92-2.37-5.29-5.29-5.29h0c-2.92,0-5.29,2.37-5.29,5.29v0
		c0,2.92,2.37,5.29,5.29,5.29h0C65.87,45.18,68.24,42.81,68.24,39.9z"/>
	<path class="st1" d="M14.41,39.9L14.41,39.9c0-2.92-2.37-5.29-5.29-5.29h0c-2.92,0-5.29,2.37-5.29,5.29v0
		c0,2.92,2.37,5.29,5.29,5.29h0C12.05,45.18,14.41,42.81,14.41,39.9z"/>
</g>
<g>
	
		<linearGradient id="SVGID_00000128487006730079191590000013521403319982089344_" gradientUnits="userSpaceOnUse" x1="-2255.4358" y1="-3225.6116" x2="-2255.4358" y2="-3193.3018" gradientTransform="matrix(6.123234e-17 1 -1 6.123234e-17 -3168.637 2308.7373)">
		<stop  offset="0" style="stop-color:#1A73E0"/>
		<stop  offset="0.9994" style="stop-color:#0033A7"/>
	</linearGradient>
	<polygon style="fill:url(#SVGID_00000128487006730079191590000013521403319982089344_);" points="24.66,58.59 24.66,48.02 
		56.97,48.02 56.97,58.59 	"/>
	<path class="st1" d="M62.26,53.3L62.26,53.3c0-2.92-2.37-5.29-5.29-5.29h0c-2.92,0-5.29,2.37-5.29,5.29v0
		c0,2.92,2.37,5.29,5.29,5.29h0C59.89,58.59,62.26,56.22,62.26,53.3z"/>
	<path class="st1" d="M30.06,53.3L30.06,53.3c0-2.92-2.37-5.29-5.29-5.29h0c-2.92,0-5.29,2.37-5.29,5.29v0
		c0,2.92,2.37,5.29,5.29,5.29h0C27.7,58.59,30.06,56.22,30.06,53.3z"/>
</g>
<g>
	<g>
		<path class="st1" d="M65.34,66.71L65.34,66.71c0-2.92-2.37-5.29-5.29-5.29h0c-2.92,0-5.29,2.37-5.29,5.29v0
			c0,2.92,2.37,5.29,5.29,5.29h0C62.97,71.99,65.34,69.63,65.34,66.71z"/>
	</g>
	<g>
		<path class="st1" d="M40.4,66.71L40.4,66.71c0-2.92-2.37-5.29-5.29-5.29h0c-2.92,0-5.29,2.37-5.29,5.29v0
			c0,2.92,2.37,5.29,5.29,5.29h0C38.04,71.99,40.4,69.63,40.4,66.71z"/>
	</g>
</g>
</svg>
