<?xml version="1.0" encoding="utf-8"?>
<!-- Generator: Adobe Illustrator 28.3.0, SVG Export Plug-In . SVG Version: 6.00 Build 0)  -->
<svg version="1.1" id="Layer_1" xmlns="http://www.w3.org/2000/svg" xmlns:xlink="http://www.w3.org/1999/xlink" x="0px" y="0px"
	 viewBox="0 0 75 75" style="enable-background:new 0 0 75 75;" xml:space="preserve">
<style type="text/css">
	.st0{opacity:0.5;}
	.st1{fill:#1A73E0;}
	.st2{fill:#F96C0D;}
	.st3{fill:url(#SVGID_1_);}
	.st4{fill:#0134A8;}
	.st5{fill:url(#SVGID_00000106125144490905182750000003037295776872520597_);}
	.st6{fill:url(#SVGID_00000067225193519421593440000002758865332400868011_);}
	.st7{fill:url(#SVGID_00000080192615018428589680000009950707313771500423_);}
</style>
<g>
	<g class="st0">
		<path class="st1" d="M4.38,22.01L4.38,22.01c0-1.69,1.37-3.06,3.06-3.06h38.64c1.69,0,3.06,1.37,3.06,3.06v0
			c0,1.69-1.37,3.06-3.06,3.06H7.45C5.75,25.07,4.38,23.7,4.38,22.01z"/>
	</g>
	<g class="st0">
		<path class="st1" d="M4.38,29.9L4.38,29.9c0-1.69,1.37-3.06,3.06-3.06h38.64c1.69,0,3.06,1.37,3.06,3.06v0
			c0,1.69-1.37,3.06-3.06,3.06H7.45C5.75,32.97,4.38,31.59,4.38,29.9z"/>
	</g>
	<g class="st0">
		<path class="st1" d="M4.38,37.79L4.38,37.79c0-1.69,1.37-3.06,3.06-3.06h38.64c1.69,0,3.06,1.37,3.06,3.06v0
			c0,1.69-1.37,3.06-3.06,3.06H7.45C5.75,40.86,4.38,39.48,4.38,37.79z"/>
	</g>
	<g class="st0">
		<path class="st1" d="M4.38,45.68L4.38,45.68c0-1.69,1.37-3.06,3.06-3.06h38.64c1.69,0,3.06,1.37,3.06,3.06v0
			c0,1.69-1.37,3.06-3.06,3.06H7.45C5.75,48.75,4.38,47.38,4.38,45.68z"/>
	</g>
	<g class="st0">
		<path class="st1" d="M4.38,61.47L4.38,61.47c0-1.69,1.37-3.06,3.06-3.06h38.64c1.69,0,3.06,1.37,3.06,3.06v0
			c0,1.69-1.37,3.06-3.06,3.06H7.45C5.75,64.53,4.38,63.16,4.38,61.47z"/>
	</g>
	<g class="st0">
		<path class="st1" d="M4.38,14.12L4.38,14.12c0-1.69,1.37-3.06,3.06-3.06h38.64c1.69,0,3.06,1.37,3.06,3.06v0
			c0,1.69-1.37,3.06-3.06,3.06H7.45C5.75,17.18,4.38,15.81,4.38,14.12z"/>
	</g>
	<g class="st0">
		<path class="st1" d="M4.38,53.58L4.38,53.58c0-1.69,1.37-3.06,3.06-3.06h38.64c1.69,0,3.06,1.37,3.06,3.06v0
			c0,1.69-1.37,3.06-3.06,3.06H7.45C5.75,56.64,4.38,55.27,4.38,53.58z"/>
	</g>
</g>
<g>
	<g>
		<path class="st2" d="M53.12,22.01L53.12,22.01c0-1.69,1.37-3.06,3.06-3.06h10.98c1.69,0,3.06,1.37,3.06,3.06v0
			c0,1.69-1.37,3.06-3.06,3.06H56.18C54.49,25.07,53.12,23.7,53.12,22.01z"/>
	</g>
	<g>
		<path class="st2" d="M53.12,29.9L53.12,29.9c0-1.69,1.37-3.06,3.06-3.06h10.98c1.69,0,3.06,1.37,3.06,3.06v0
			c0,1.69-1.37,3.06-3.06,3.06H56.18C54.49,32.97,53.12,31.59,53.12,29.9z"/>
	</g>
	<g>
		<path class="st2" d="M53.12,37.79L53.12,37.79c0-1.69,1.37-3.06,3.06-3.06h10.98c1.69,0,3.06,1.37,3.06,3.06v0
			c0,1.69-1.37,3.06-3.06,3.06H56.18C54.49,40.86,53.12,39.48,53.12,37.79z"/>
	</g>
	<g>
		<path class="st2" d="M53.12,45.68L53.12,45.68c0-1.69,1.37-3.06,3.06-3.06h10.98c1.69,0,3.06,1.37,3.06,3.06v0
			c0,1.69-1.37,3.06-3.06,3.06H56.18C54.49,48.75,53.12,47.38,53.12,45.68z"/>
	</g>
	<g>
		<path class="st2" d="M53.12,61.47L53.12,61.47c0-1.69,1.37-3.06,3.06-3.06h10.98c1.69,0,3.06,1.37,3.06,3.06v0
			c0,1.69-1.37,3.06-3.06,3.06H56.18C54.49,64.53,53.12,63.16,53.12,61.47z"/>
	</g>
	<g>
		<path class="st2" d="M53.12,14.12L53.12,14.12c0-1.69,1.37-3.06,3.06-3.06h10.98c1.69,0,3.06,1.37,3.06,3.06v0
			c0,1.69-1.37,3.06-3.06,3.06H56.18C54.49,17.18,53.12,15.81,53.12,14.12z"/>
	</g>
	<g>
		<path class="st2" d="M53.12,53.58L53.12,53.58c0-1.69,1.37-3.06,3.06-3.06h10.98c1.69,0,3.06,1.37,3.06,3.06v0
			c0,1.69-1.37,3.06-3.06,3.06H56.18C54.49,56.64,53.12,55.27,53.12,53.58z"/>
	</g>
</g>
<g>
	<g>
		
			<linearGradient id="SVGID_1_" gradientUnits="userSpaceOnUse" x1="-2286.7273" y1="-3206.2273" x2="-2286.7273" y2="-3184.3198" gradientTransform="matrix(6.123234e-17 1 -1 6.123234e-17 -3168.637 2308.7373)">
			<stop  offset="0" style="stop-color:#1A73E0"/>
			<stop  offset="0.9994" style="stop-color:#0033A7"/>
		</linearGradient>
		<polygon class="st3" points="15.68,25.07 15.68,18.95 37.59,18.95 37.59,25.07 		"/>
		<path class="st4" d="M65.39,22.01L65.39,22.01c0-1.69-1.37-3.06-3.06-3.06h0c-1.69,0-3.06,1.37-3.06,3.06v0
			c0,1.69,1.37,3.06,3.06,3.06h0C64.02,25.07,65.39,23.7,65.39,22.01z"/>
		<path class="st4" d="M40.92,22.01L40.92,22.01c0-1.69-1.37-3.06-3.06-3.06h0c-1.69,0-3.06,1.37-3.06,3.06v0
			c0,1.69,1.37,3.06,3.06,3.06h0C39.54,25.07,40.92,23.7,40.92,22.01z"/>
		<path class="st4" d="M18.4,22.01L18.4,22.01c0-1.69-1.37-3.06-3.06-3.06h0c-1.69,0-3.06,1.37-3.06,3.06v0
			c0,1.69,1.37,3.06,3.06,3.06h0C17.03,25.07,18.4,23.7,18.4,22.01z"/>
	</g>
	<g>
		
			<linearGradient id="SVGID_00000150789198308772203620000008228202681123561091_" gradientUnits="userSpaceOnUse" x1="-2278.8359" y1="-3228.5625" x2="-2278.8359" y2="-3181.7681" gradientTransform="matrix(6.123234e-17 1 -1 6.123234e-17 -3168.637 2308.7373)">
			<stop  offset="0" style="stop-color:#1A73E0"/>
			<stop  offset="0.9994" style="stop-color:#0033A7"/>
		</linearGradient>
		<polygon style="fill:url(#SVGID_00000150789198308772203620000008228202681123561091_);" points="13.13,32.97 13.13,26.84 
			59.93,26.84 59.93,32.97 		"/>
		<path class="st4" d="M62.99,29.9L62.99,29.9c0-1.69-1.37-3.06-3.06-3.06h0c-1.69,0-3.06,1.37-3.06,3.06v0
			c0,1.69,1.37,3.06,3.06,3.06h0C61.62,32.97,62.99,31.59,62.99,29.9z"/>
		<path class="st4" d="M16.26,29.9L16.26,29.9c0-1.69-1.37-3.06-3.06-3.06h0c-1.69,0-3.06,1.37-3.06,3.06v0
			c0,1.69,1.37,3.06,3.06,3.06h0C14.89,32.97,16.26,31.59,16.26,29.9z"/>
	</g>
	<g>
		
			<linearGradient id="SVGID_00000072248339006952620400000016741665208776348598_" gradientUnits="userSpaceOnUse" x1="-2270.9446" y1="-3226.3486" x2="-2270.9446" y2="-3184.1501" gradientTransform="matrix(6.123234e-17 1 -1 6.123234e-17 -3168.637 2308.7373)">
			<stop  offset="0" style="stop-color:#1A73E0"/>
			<stop  offset="0.9994" style="stop-color:#0033A7"/>
		</linearGradient>
		<polygon style="fill:url(#SVGID_00000072248339006952620400000016741665208776348598_);" points="15.51,40.86 15.51,34.73 
			57.71,34.73 57.71,40.86 		"/>
		<path class="st4" d="M60.78,37.79L60.78,37.79c0-1.69-1.37-3.06-3.06-3.06h0c-1.69,0-3.06,1.37-3.06,3.06v0
			c0,1.69,1.37,3.06,3.06,3.06h0C59.4,40.86,60.78,39.48,60.78,37.79z"/>
		<path class="st4" d="M19.02,37.79L19.02,37.79c0-1.69-1.37-3.06-3.06-3.06h0c-1.69,0-3.06,1.37-3.06,3.06v0
			c0,1.69,1.37,3.06,3.06,3.06h0C17.65,40.86,19.02,39.48,19.02,37.79z"/>
	</g>
	<g>
		
			<linearGradient id="SVGID_00000106833340755120495900000001800614957707709074_" gradientUnits="userSpaceOnUse" x1="-2263.0535" y1="-3222.5374" x2="-2263.0535" y2="-3195.7729" gradientTransform="matrix(6.123234e-17 1 -1 6.123234e-17 -3168.637 2308.7373)">
			<stop  offset="0" style="stop-color:#1A73E0"/>
			<stop  offset="0.9994" style="stop-color:#0033A7"/>
		</linearGradient>
		<polygon style="fill:url(#SVGID_00000106833340755120495900000001800614957707709074_);" points="27.14,48.75 27.14,42.62 
			53.9,42.62 53.9,48.75 		"/>
		<path class="st4" d="M56.96,45.68L56.96,45.68c0-1.69-1.37-3.06-3.06-3.06h0c-1.69,0-3.06,1.37-3.06,3.06v0
			c0,1.69,1.37,3.06,3.06,3.06h0C55.59,48.75,56.96,47.38,56.96,45.68z"/>
		<path class="st4" d="M30.27,45.68L30.27,45.68c0-1.69-1.37-3.06-3.06-3.06h0c-1.69,0-3.06,1.37-3.06,3.06v0
			c0,1.69,1.37,3.06,3.06,3.06h0C28.9,48.75,30.27,47.38,30.27,45.68z"/>
	</g>
	<g>
		<g>
			<path class="st4" d="M58.93,53.58L58.93,53.58c0-1.69-1.37-3.06-3.06-3.06h0c-1.69,0-3.06,1.37-3.06,3.06v0
				c0,1.69,1.37,3.06,3.06,3.06h0C57.56,56.64,58.93,55.27,58.93,53.58z"/>
		</g>
		<g>
			<path class="st4" d="M39.41,53.58L39.41,53.58c0-1.69-1.37-3.06-3.06-3.06h0c-1.69,0-3.06,1.37-3.06,3.06v0
				c0,1.69,1.37,3.06,3.06,3.06h0C38.04,56.64,39.41,55.27,39.41,53.58z"/>
		</g>
	</g>
</g>
</svg>
